<svg width="24" height="24" viewBox="0 0 24 24" fill="none" xmlns="http://www.w3.org/2000/svg">
<g id="ep:arrow-up-bold">
<path id="Vector" d="M7.93951 2.454C7.6583 2.7353 7.50033 3.11676 7.50033 3.5145C7.50033 3.91225 7.6583 4.29371 7.93951 4.575L15.3645 12L7.93951 19.425C7.66627 19.7079 7.51508 20.0868 7.51849 20.4801C7.52191 20.8734 7.67967 21.2496 7.95778 21.5277C8.23589 21.8058 8.61211 21.9636 9.0054 21.967C9.3987 21.9704 9.7776 21.8192 10.0605 21.546L18.546 13.0605C18.8272 12.7792 18.9852 12.3977 18.9852 12C18.9852 11.6023 18.8272 11.2208 18.546 10.9395L10.0605 2.454C9.77921 2.1728 9.39775 2.01482 9 2.01482C8.60226 2.01482 8.2208 2.1728 7.93951 2.454Z" fill="white" fill-opacity="0.9"/>
</g>
</svg>
