<svg width="24" height="24" viewBox="0 0 24 24" fill="none" xmlns="http://www.w3.org/2000/svg">
<g id="ep:arrow-up-bold">
<path id="Vector" d="M16.0605 21.546C16.3417 21.2647 16.4997 20.8832 16.4997 20.4855C16.4997 20.0878 16.3417 19.7063 16.0605 19.425L8.6355 12L16.0605 4.575C16.3337 4.29209 16.4849 3.91319 16.4815 3.51989C16.4781 3.1266 16.3203 2.75038 16.0422 2.47227C15.7641 2.19415 15.3879 2.0364 14.9946 2.03299C14.6013 2.02957 14.2224 2.18076 13.9395 2.454L5.454 10.9395C5.17279 11.2208 5.01482 11.6023 5.01482 12C5.01482 12.3977 5.17279 12.7792 5.454 13.0605L13.9395 21.546C14.2208 21.8272 14.6022 21.9852 15 21.9852C15.3977 21.9852 15.7792 21.8272 16.0605 21.546Z" fill="white"/>
</g>
</svg>
